<?xml version="1.0" standalone="no"?><!DOCTYPE svg PUBLIC "-//W3C//DTD SVG 1.1//EN" "http://www.w3.org/Graphics/SVG/1.1/DTD/svg11.dtd"><svg t="1526131756060" class="icon" style="" viewBox="0 0 1024 1024" version="1.1" xmlns="http://www.w3.org/2000/svg" p-id="3889" xmlns:xlink="http://www.w3.org/1999/xlink" width="128" height="128"><defs><style type="text/css"></style></defs><path d="M795.05 902.6H228.95c-29.7 0-54-24.3-54-54v-504h73.8l526.5-9h73.8v512.55c0 30.15-24.3 54.45-54 54.45z" fill="#E94929" p-id="3890"></path><path d="M628.55 493.1s-21.15 88.2-117.9 88.2-137.7-90.9-137.7-90.9C295.55 476 252.35 450.8 197.9 418.85l-22.95-13.5V187.1c0-29.7 24.3-54 54-54h566.1c29.7 0 54 24.3 54 54v208.35l-17.1 10.8c-3.6 2.25-7.65 4.95-11.25 7.2-57.6 36.9-103.05 66.15-192.15 79.65z" fill="#DB3314" p-id="3891"></path><path d="M512 625.85c-85.05 0-154.35-69.3-154.35-154.35S426.95 317.6 512 317.6s154.35 69.3 154.35 154.35-69.3 153.9-154.35 153.9z" fill="#DB3314" p-id="3892"></path><path d="M628.55 480.05s-21.15 88.2-117.9 88.2-137.7-91.35-137.7-91.35c-77.4-13.95-120.6-39.6-175.05-71.55l-22.95-13.5V174.05c0-29.7 24.3-54 54-54h566.1c29.7 0 54 24.3 54 54v208.35l-17.1 10.8c-3.6 2.25-7.65 4.95-11.25 7.2-57.6 36.9-103.05 65.7-192.15 79.65z" fill="#FF5B43" p-id="3893"></path><path d="M512 606.05c-85.05 0-154.35-69.3-154.35-154.35S426.95 297.8 512 297.8s154.35 69.3 154.35 154.35-69.3 153.9-154.35 153.9z" fill="#FFDA47" p-id="3894"></path><path d="M595.25 512v-36h-65.7v-43.2h65.7v-36h-18l9.9-40.5h-37.35l-9.9 40.5H488.15l-11.25-40.5h-37.35l11.25 40.5h-21.6v36h64.35V476H428.75v36h64.35v54.45h36V512h66.15z" fill="#F15328" p-id="3895"></path></svg>